<svg xmlns="http://www.w3.org/2000/svg" viewBox="0 0 333 228.26"><defs><style>.cls-1{fill:#fff;}.cls-2{fill:#ba8ff8;}</style></defs><g id="Layer_2" data-name="Layer 2"><g id="Layer_1-2" data-name="Layer 1"><path class="cls-1" d="M310.79,66.92c-13.93-16-34.94-24.06-55.75-28.13s-42.19-4.7-63-8.93c-44.92-9.14-89.13-35-133.73-24.35C47.52,8.08,37,12.93,29.11,20.74,18.53,31.16,13.39,45.9,10.37,60.43a184.11,184.11,0,0,0-1.62,66.15c2,12.93,6.3,26.85,17.35,33.87,3.58,2.28,7.67,3.68,11.24,6,4,2.58,7.19,6.21,10.29,9.83,11.59,13.53,22.91,27.82,38.09,37.15,20.7,12.71,46.1,14.7,70.38,14.84,13.3.09,26.92-.34,39.32-5.17,27.24-10.59,43-39.92,69.14-53.07,19.55-9.86,44.86-10.79,58.5-27.92,10-12.55,10.35-30,9.77-46-.29-7.77-1.55-17-8.46-20.52-6.41-3.3-2,2.44-6.41-3.3-4-5.26-.57-5-7.17-5.3"/><path class="cls-2" d="M308.64,71.57c-.85-.88-.82-.27-1-.34C309.15,72.59,308.68,71.46,308.64,71.57Z"/><path class="cls-2" d="M321.06,87.69l-.32-.26c.55.87,1.07,1.75,1.6,2.64Z"/><path class="cls-2" d="M326.23,106.28a5.72,5.72,0,0,0,0-2,19,19,0,0,0-.51-2.66c-.44-1.92-1.12-4-1.48-5.67v-.6c-.32-.45-.68-.88-1-1.31.72,2,1.42,4.26,2,6.44A36.3,36.3,0,0,1,326.23,106.28Z"/><path class="cls-2" d="M325.24,116.58c.28-.62.23,2.2.09-2.36,0,.23-.05.29-.07.43C325.26,115.06,325.26,115.62,325.24,116.58Z"/><path class="cls-2" d="M325.26,114.65c0-2-.23,1.31,0,0Z"/><path class="cls-2" d="M324.91,123.9c0-.89,0-1.77,0-2.65-.18.53-.5,2.85-.52,2C324.24,125.92,324.46,125.4,324.91,123.9Z"/><path class="cls-2" d="M325.09,126.46l.1-1.38A2.58,2.58,0,0,0,325.09,126.46Z"/><path class="cls-2" d="M325.3,122.16l-.11,2.92c.16-.36.39-.38.08-1.34C325.45,124,325.32,123.4,325.3,122.16Z"/><path class="cls-2" d="M325.54,120.52c.28-1.47.41-3.41.55-.72.08-2.56-.06-3.64-.2-3.46A24.72,24.72,0,0,0,325.54,120.52Z"/><path class="cls-2" d="M327.07,107.19c0-.69,0-1.38-.05-2.06l-.5-1.71a17.33,17.33,0,0,1,.32,2.26C326.91,106.53,327,107.26,327.07,107.19Z"/><path class="cls-2" d="M320.8,139.77c.09.21.68-.7.93-.82.17-.63.3-1.28.44-1.92A10.5,10.5,0,0,1,320.8,139.77Z"/><path class="cls-2" d="M321.73,139c-.25.94-.47,1.91-.77,2.84C321.93,139.35,321.93,138.84,321.73,139Z"/><path class="cls-2" d="M325.8,127.06c.08-1.64.09-3.28.07-4.9l-.05,2.91-.16,2.92Z"/><path class="cls-2" d="M316.22,149.84l.47-1.61c-.32.93-.58,1.89-1,2.81A12.57,12.57,0,0,0,316.22,149.84Z"/><path class="cls-2" d="M312.35,156.13c.47-1.16-1.38,1.08-.77-.07-1.13,1.65-1.87,3.21-2.72,4.52C309.85,159.26,310.83,157.83,312.35,156.13Z"/><path class="cls-2" d="M307.47,162.8c.47-.68.91-1.42,1.39-2.22A25.1,25.1,0,0,0,307.47,162.8Z"/><path class="cls-2" d="M318.92,146.36a5.89,5.89,0,0,0-1.4,1.87l.89-.84Z"/><path class="cls-2" d="M318.44,147.36l0,0c-.55,1.13-1,1.87-1.17,2.2C317.38,149.3,317.79,148.66,318.44,147.36Z"/><path class="cls-2" d="M319.05,146.1l-.13.26A.3.3,0,0,0,319.05,146.1Z"/><path class="cls-2" d="M323.79,134.58c-.19,1.74-1.1,5.3.32,2C324.19,135.32,323.44,137.2,323.79,134.58Z"/><path class="cls-2" d="M320.12,145c.47-.94.9-1.9,1.31-2.87-.13,0-.49.48-.29-.36C320.83,142.86,320.5,143.94,320.12,145Z"/><path class="cls-2" d="M319.62,146.47c.18-.49.33-1,.5-1.46l-.5,1.05Z"/><path class="cls-2" d="M311.11,158.87c-.16.3-.33.61-.51.91s-.42.59-.64.89l-1.46,1.87a37.7,37.7,0,0,0,3.42-4.19C312,158.07,312.21,157.3,311.11,158.87Z"/><path class="cls-2" d="M314.94,153.44l-.14.27C314.93,153.57,315,153.45,314.94,153.44Z"/><path class="cls-2" d="M296.81,174.18l.25-.11V174Z"/><path class="cls-2" d="M312.16,158.15a11.29,11.29,0,0,0,1.58-2.47c-.55.85-1.15,1.73-1.82,2.67C311.91,158.48,311.93,158.52,312.16,158.15Z"/><path class="cls-2" d="M304.56,166.33c.54-.45,1.14-1,1.76-1.54A9.15,9.15,0,0,0,304.56,166.33Z"/><path class="cls-2" d="M314.47,154l.09-.18C314.25,154.17,314.31,154.15,314.47,154Z"/><path class="cls-2" d="M314.47,154c-.32.62-.5,1.15-.73,1.65.43-.7.77-1.38,1.06-2A3.23,3.23,0,0,1,314.47,154Z"/><path class="cls-2" d="M294.52,179.48c0-.24.64-1,1.65-1.85a34.49,34.49,0,0,1,3.63-2.83c2.17-2.23-.26-1.88-2.74-.73,0,.09.06.17-.19.5a13.19,13.19,0,0,1-1.95,2,12.73,12.73,0,0,0,1.31-.79l1.69-1.17c1.07-.72,1.79-1.12.89-.12-3.05,2.88-2.73,2.08-4.46,3.16.84-.33-.11.61-1.13,1.65s-2.19,2.08-1.59,2.13c1-.74,1.91-1.58,2.84-2.39C294.6,179.06,293.63,180,294.52,179.48Z"/><path class="cls-2" d="M301.52,170.15l.89-.92a26.42,26.42,0,0,1-3.59,2.63c-1.49,1.51-1.73,1.92-1.76,2.11l2.43-2c.78-.7,1.53-1.43,2.3-2.14Z"/><path class="cls-2" d="M306.39,165.1c-.36,1-2.34,3.41-.71,2.34,2.54-2.82,1.59-2.15,2.87-4a13.55,13.55,0,0,1-1.54,1.79c-.14.13,0-.1.19-.37.36-.55.83-1.27-.75.25.78-.9,1.42-1.75,2.05-2.55a27.56,27.56,0,0,1-2.18,2.25l.11-.09,0,0h0c.22-.16.3-.2.08,0l-.08.1a.55.55,0,0,1-.07.3c-1.25,1.23-.27.13.07-.3a.33.33,0,0,0,0-.1h0l-2,2.3c-.33.38-.65.77-1,1.14l-1,1.09A40.31,40.31,0,0,0,306.39,165.1Z"/><path class="cls-2" d="M324,140c-.1.17-.13.15-.16.15C323.74,140.58,323.72,140.73,324,140Z"/><path class="cls-2" d="M322.86,142.33a11.35,11.35,0,0,1,.61-2.21c.54-1.15.19.08.35.06.2-.87.69-3-.38-.47l-.09.43c-.94,2.31-2.71,5-2.6,4.57A8.44,8.44,0,0,0,322.86,142.33Z"/><path class="cls-2" d="M315.61,154.72c-.79,1.51-1.79,2.9-2.71,4.34l1.83-1.92h-.27a6.31,6.31,0,0,0,1.19-1.95C315.71,154.92,315.58,154.92,315.61,154.72Z"/><path class="cls-2" d="M296.23,174.39l.22-.78c-.6.79-1.19,1.59-1.85,2.33C295.17,175.45,295.71,174.93,296.23,174.39Z"/><path class="cls-2" d="M291.07,178.44l0-.46c-.42.41-.86.78-1.29,1.17Z"/><path class="cls-2" d="M4.81,76.89l.24-1.55C4.92,76.07,4.85,76.54,4.81,76.89Z"/><path class="cls-2" d="M2.83,87.94l.16.3C3,87.71,2.9,87.49,2.83,87.94Z"/><path class="cls-2" d="M132.65,192.5c-2.18-.65-4.63-1.47-4.4-1l.64.5A23.27,23.27,0,0,1,132.65,192.5Z"/><path class="cls-2" d="M25.67,171l.43.5,1.44.58Z"/><path class="cls-2" d="M23.32,171.41c-.72-.68-1.43-1.36-2.14-2.06C21.64,169.84,22.32,170.52,23.32,171.41Z"/><path class="cls-2" d="M35.27,24.27l1.09-1.54C34.2,24.63,35.3,24,35.27,24.27Z"/><path class="cls-2" d="M228,200.58c-1.9,0-3.39,0-4.71.11C225.53,200.78,227.4,201,228,200.58Z"/><path class="cls-2" d="M8.45,82.06c.1-.91.08-1.31,0-1.31C8.33,81.69,8.31,82.23,8.45,82.06Z"/><path class="cls-2" d="M217.8,201c.34,0,.66,0,1,.06,1.38-.15,2.76-.28,4.45-.34A21.12,21.12,0,0,0,217.8,201Z"/><path class="cls-2" d="M244.3,40.77l.45.22C244.81,41,244.61,40.87,244.3,40.77Z"/><path class="cls-2" d="M301.09,69.51l-2.3-1.19C299.19,68.56,299.88,68.91,301.09,69.51Z"/><path class="cls-2" d="M267.78,190.92c1.28-.57.19-.13,0,0Z"/><path class="cls-2" d="M274.73,189.73c-.25.18-.43.33-.42.44A1.14,1.14,0,0,1,274.73,189.73Z"/><path class="cls-2" d="M203.67,203.68h-.13C204,203.77,203.89,203.76,203.67,203.68Z"/><path class="cls-2" d="M269.8,190.29c-.51.15-1.08.35-1.7.57C268.38,190.78,268.9,190.61,269.8,190.29Z"/><path class="cls-2" d="M269.46,190.21l1.14-.44C270.73,189.64,270.57,189.66,269.46,190.21Z"/><path class="cls-2" d="M266,191.67l2.12-.81c-.26.08-.38.11-.32.06C267.41,191.08,266.89,191.34,266,191.67Z"/><path class="cls-2" d="M132.8,4.82l.29.1C134.55,5,133.92,4.92,132.8,4.82Z"/><path class="cls-2" d="M95.45,196.75l.16,0H95.4Z"/><path class="cls-2" d="M90.33,197.52a14.79,14.79,0,0,1,5.07-.8l-1.81-1.09Z"/><path class="cls-2" d="M14,51.51c-.74,1-1.36,2.08-2,3.13A27.46,27.46,0,0,1,13,51.75l.85-1.9c.38-.86.28-.85-.82.55.25.29-.12,1.19-.63,2.5s-1.31,2.92-2.05,4.58S9,60.84,8.55,62.16,8,64.47,8.29,64.7c-.35.73-.74,1.46-1.06,2.21.21-.66.19-.79.43-1.44C5.59,69.8,7.45,69.1,5.74,74.9c-.57,2-1.09,3.43-.93,2-.26,1.55-.42,3.12-.61,4.68-.28,1.33-.45,1-.17-.37-.22,1.18-.38,2.36-.55,3.54S3.14,87.11,3,88.3l0-.06c.07,1,.12,3.37.16,4.5-.37,1.78,0-.92-.26-.48,0,1.32-.07,2.64,0,4-.48,1.57-.59-1.71-.23-4.43a6.84,6.84,0,0,0-.82,4A34.72,34.72,0,0,1,1.32,103l0-3.74c-.9,2.36-.79,5.3-1.35,9.51.24-1,1.49-8.41,1.67-4.11a21.48,21.48,0,0,0,0,5.1c-.48,0-.4,2.26-.37,5.08l-.64-.19c.19,3,.53,2.8.83,4.58,0,3.39-.48,4.1-.87,4.91.05,5.41.68-3.76,1,2.64A54.64,54.64,0,0,0,2.87,139.9c.26,3.24-.48-.51-.49.67.32.93.64,1.86,1,2.77.12.69-.08.5-.18.4.75,2.35.6.09,1.78,3.72.48.39.8,2.32,1.6,4.66a16.84,16.84,0,0,0,3.92,6.66c.56,1.05-.65-.22-.64.21a44,44,0,0,0,4.21,4.2,42.27,42.27,0,0,0,4,3q1.51,1.64,3.11,3.19c-2.21-2.44,1.34-.19,4.49,1.6-.77-.88-1.41-1.64-1.86-2.12,1.57,1.1,3.16,2.16,4.75,3.22.49.5-.1.33-1,0l.94.51c1.49,1.42.42,1.08-1,.48l-1.41-1.57c-1.36-.55-2.68-1-2.67-.56a17.39,17.39,0,0,1,1.6,1c-.36-.15-.61-.22-.51-.06a7,7,0,0,0,1.53.87l.61,1.36.42,0c1.92,1.63,3.84,3.26,5.8,4.86,2.4,1.3,4.73,2.39,7.38,3.69s5.64,2.77,9.45,4.69c-2.12-.56-.82.53-1.21,1-1.75-1.7-6-3.09-9.59-5.72,1.9,1.35,1.32,1.3.76,1.07,2.34,1.3,4.7,2.55,7.11,3.7-.41.36,1.29,1.18,3,2.36-.47-.82.93-.25,2.85.6,1,.44,2.07.88,3.11,1.34s2.09.78,2.88,1c0,.2-.17.3-.83.16a16.46,16.46,0,0,1-3.62-1.39c3.77,2.5,5.67,1.17,9.57,3a6.07,6.07,0,0,0-1.84-.42c1.14.17,3,.78,4.47,1.15s2.49.76,1.81.77l-1-.22c.79.23,1.7.39,2.68.57s2,.35,3.11.47a50.59,50.59,0,0,0,6.59.33c4.25,0,7.73-.57,8.18-1,.07.1-.77,1.07-1.16,1.26,3.78-1.16,7.42-2.47,11.1-3.77-.93.82,3,2.2-2.16,3.09a40,40,0,0,0,6.52-.62c-1,0-2.64-.83-1.25-1,3.9.51,2.71.18,7.44.63-1.53-.07.11-1.34,2.54-1.34-.37.18.22,1.13-.65,1.27q3-.65,6-1.12c-1.51.16-.28,1,1,1.3-.61-.28,5.17.27,6.77.31l-2.52-.44a25.55,25.55,0,0,0,6.79-.14,21.21,21.21,0,0,1,6.8,0c-.85.13-2.19,1.15,1.2,1.75a44,44,0,0,1,13.36-1.18l1.09.51,4.62.37c-3,.4-11.25.87-15.69.94,2.49.64.65.48,4.44,1,1.28.52-2.14.14-3.25,0l8.78,1.6c-.29-.73,6.87.44,6.62-.17l-9.71-.88c-.28-.73,5.85-1,12.1.14,1.55.52-1.38,1-1.29,1.24a40.65,40.65,0,0,1,6.59.72l-2.72,0c3.47.77,5.84,0,10,1.17,1.44.25,4.25,1.41,4.55,1.05-2.29-1.05-2.45-3.46-.8-3.84l4.15.93c2,.44,4.19.94,5,1.22,2.35.85-3.74,1-1.75,1.77a6.19,6.19,0,0,1,2-.27c1.52.29-.69.51,2.66.72.62-.61,6.8.64,1.63-.43,3.28.09,3.47.4,7.31.65-1.19-.52,3.54-1.3,6.81-1.39-.2.16.52.41.88.52,6.69.25,10.3.51,16.56.25.58.14,3.62.18,2.35.54a29.57,29.57,0,0,1,3.63-.63c3.79.28-4.3.45-1.4.92.22-.43,5-.91,7.67-1.53-.46-.26-2-.07-3.85.16s-3.86.6-5.23.8c0-.41,1.14-.93,3.1-1.47,1-.28,2.18-.52,3.51-.82s2.83-.61,4.42-.89c5.07-.94,2.29.21,3.16,0,1.2-.17,2.23-.31,3.12-.5s1.63-.38,2.28-.57c1.31-.37,2.24-.7,3.12-1a25.07,25.07,0,0,1,2.78-1c1.1-.31,2.48-.6,4.43-1,3.21-.32.43,1,1.21,1.19-1,.32-1.9.57-2.73.78s-1.59.3-2.31.41c-1.44.21-2.7.4-4.1.68,1.17-.13,2.32-.35,3.48-.51-.63.23-1.63.54-2.66.81a21.61,21.61,0,0,1-2.88.5,57.73,57.73,0,0,0,10-2l3.5-.94,3.48-1.07c2.31-.66,4.44-1.45,6.26-2,1.2-.6,3.24-1.71,2.16-1.48-.72.35-1.45.66-2.18.94-1.11.18-.11-.35.79-.81s1.69-.94.28-.45c1.4-.76,2.87-1.59,4.51-2.42a57.52,57.52,0,0,1,5.43-2.66l1,.15a16.31,16.31,0,0,0-3.82,1.68,40.78,40.78,0,0,1,4-1.74,11.66,11.66,0,0,0,3.88-2.3l-2.95,1.11c1.32-.88,2.77-1.92,4.25-3.06.75-.55,1.52-1.11,2.33-1.64s1.58-1.11,2.42-1.6a3.34,3.34,0,0,0-1.36.58,5.91,5.91,0,0,1-2,.88c1.26-.25-.88,1-2.86,2.22s-3.91,2.12-2,1.63a18,18,0,0,0-3.8,1.37,32.21,32.21,0,0,1-4.39,1.57c.09.06.43,0,.37.11a7.56,7.56,0,0,1-2,.93,6.89,6.89,0,0,1-.59.45l-.21.07.17,0c-.12.08-.12.09.07,0a8.17,8.17,0,0,1,1.66-.37,24.88,24.88,0,0,1-3.76,2.06c-1.57.75-3.22,1.36-4,1.8-1.87.59.69-.5-.39-.34-.79.41-1.57.86-2.38,1.23-.4-.34-5.16.87-.88-.78l-3.93,1.24a69.26,69.26,0,0,0-7.61,1.82,19.12,19.12,0,0,0-2.86.83c-.73.25-1,.36-.24,0-2.11.48-4.21,1-6.33,1.44l-.08-.11c-6.31,1-13,2.47-20.44,2-1.07.11-2.17.18-3.46.25a44.82,44.82,0,0,1-4.56,0l-.7-.39c-2.78.17-8.34-.54-9.54-.19-1.48-.6-4.84-.8-8.45-1s-7.46-.41-9.88-.78l-.24.49c-1.68-.19-3.33-.34-5.08-.5l-5.71-.48.19.48c-3.65-.09-9.19-1.61-14.88-2.47a10.06,10.06,0,0,1,2.85.43c-6.61-2.05-14.44-1.64-20.54-3.26a18.63,18.63,0,0,1-3.77-.53l.39,0-.64-.09c-.67-.17-1.37-.36-2.13-.52.64.18,1.25.36,1.79.47-1.2-.15-3-.32-4.84-.41l-.71-.56-.42,0c-1.74-.36-1.43.08-.53.54-.91,0-1.75,0-2.4.06-1.37-.91-4.73-.11-6.66-1-.62.17-2.9.15-5.14.28s-4.46.38-4.92.8c-.06-.1-.6-.14.38-.18a27.3,27.3,0,0,0-5.81.38l-.89-.55-4.28,1.2c-2.66-.13-3.77-.24-1.21-1-6.22,1.29-5.06.78-10.35,1.84l.24-.41c-1.89.15-4.92.73-6.07.41s-2.89-.31-5.19-.55c-1.15-.11-2.41-.28-3.75-.47s-2.77-.46-4.21-.85a55.92,55.92,0,0,1-16.77-7c.65,1-.4.3-1.71-.59s-2.82-2.06-3.23-1.8c-.4-.57-1.6-1.5,0-.78-4.85-2.7-6.72-4.92-10.3-6.54-.35-.6,1.21.38.84-.09a8.19,8.19,0,0,1-2-1.32c-.36-.47.8.29,1.58.71-4.63-3.31-5.59-3-6.4-2.63a16.09,16.09,0,0,0-5.26-3.77c-.63-.83-1.77-2.08,1.07,0-.78-.63-3.12-2.58-5.2-4.42s-3.91-3.63-4.2-3.49a21.26,21.26,0,0,0-2.19-2.4,34.93,34.93,0,0,1-2.64-3.69,37,37,0,0,1-2.16-3.9c.14.37.26.75.42,1.11-1.43-1.18-1.72-3.16-2.71-6.48l.1.08c-.71-3.94-.75-4.81-1-5.64a24.18,24.18,0,0,1-.36-5.67l-.45.47c-.55-.33-.51-2.13-.37-4.41a46.82,46.82,0,0,0,.12-7.4l-.24,1.7c-.43-2.56,1.25-7.18,1.39-9.73.09-.55.13.88.21,1.66.61-6.68-.64-.86-.76-5.85.36-.92.84,1.19,1-2.16.14-.83-.06-3.25-.16-6a33.34,33.34,0,0,1,.49-8.18c-.36,1-.72,2-.68-.37.07-.88.21-1.92.41-3l.7-3.41a25.9,25.9,0,0,0,.83-6.17c.16-.43.26-.58.32-.59.12-1.34.55-3.49.89-5.52a41.73,41.73,0,0,0,.8-4.75c1.16-1,2.15-5,3.48-8.63l.92-2.63c.33-.82.67-1.54,1-2.16.6-1.23,1.11-2,1.44-1.77.57-1.25,1.29-2.42,1.93-3.64l1-1.8,1.09-1.75,0,.27c.73-1.1,1.31-2,1.81-2.84s.95-1.44,1.3-2c.7-1.16,1.06-2.06,1.51-2.89.85-.89.4-.1.4,0l3.07-3.53c.87-.91,1.55-1.67,2.18-2.42,1.23-1.54,2.42-2.89,4.46-5.47l.84-.08a16.46,16.46,0,0,1,1.95-1.74c.48-.39,1-.84,1.64-1.3l2-1.45L44.36,23c.8-.52,1.61-1.07,2.41-1.63,1.59-1.16,3.29-2.21,4.81-3.34,0,.09-.11.25-.58.63a39.26,39.26,0,0,1,5.86-3.43c1-.54,2.16-.95,3.22-1.41s2.11-.92,3.16-1.26C67.35,11,70.88,10,72.11,8.65l5.33-1.86c-7.11,1.73.87-1-2.12-.56,2.77-1,7.44-1,4-.32h-.57c-1.07,1.16,9-1.39,8.94-.53a100.29,100.29,0,0,1,21.18-.51,174.83,174.83,0,0,1,20.4,2.76l-1.4-1,4.63.93c1.18.4,1.51.88-1.78.21a11.48,11.48,0,0,0,3.44.63,10.3,10.3,0,0,0,2.28,0c6.37,1.76-2.69.26-.72.73l2.68.55-.58-.22a23.21,23.21,0,0,1,6.42,1c2.45.79,1.16.77,2.13,1.05,0,.05.3.16,1.49.41,1.91.53,3.81,1.12,5.71,1.68l-2.13-1.21c2.62.46,5.38,1.58,2.92.19a35.9,35.9,0,0,0,4.86,2L166.52,17c5.11,1.68,10,3.32,11.15,3.88A83.8,83.8,0,0,1,189,24.59c-1-.5-1.44-1.34,2.22.08-1.8.77,6.55,3,9.2,5C198,28.11,211,33.36,207.11,31c3,1.23,0,.54,2.24,1.69,7.49,2.19,16,6.21,25.11,9.35.2-.11-1.22-.92.81-.46l4.47,2.58c1.82.57,2-.36,5,1.41-.41-.31-1-.77.2-.38,8.7,3.67,17.79,6.84,26.76,10.39S289.59,63,297.63,68.15c-2.13-1.48-.59-.72,1.16.17-1.1-.66.22-.37.11-.7,1.14.7,2.25,1.45,3.35,2.18s2.23,1.47,3.31,2.24c1.61.12,7.33,4.33,8.34,4.29-.72-.43-1.45-.84-2.19-1.25,3.26,1.15-3.12-3.9-2.25-4.44-3.67-1.21-8.12-6.1-14.29-7.79-1.15-.79,1.2.24.63-.29a25.61,25.61,0,0,1-6.47-2.77l.4.08-11.12-5.1c-3.36-1.54-6.86-3.18-12-5.32l.59.74a36.35,36.35,0,0,1-3.63-1.76c-2.81-.33,6.26,2.47,3.64,2.3-2.6-2.09-15.76-6-17.39-7.77-3.44-1.28.82.89-2.62-.39l-.81-.62-1,0c-2.24-.88-3.25-1.65-3.25-1.92.54.23,1.58.51,2.18.7-2.81-1.4-8.32-2.91-9.29-3.38l3.26,1.38c-9.52-3.18-20.89-7.75-30.19-10.51l.61.46c-7.09-2.15-5.48-2.27-13.18-4.88l.3.06a42.85,42.85,0,0,1-5.76-1.78c2,.46-3.46-1.8-.83-1.15-7.69-2.34-3.85-1-9.12-2l-1-.76a25.75,25.75,0,0,1-5.89-1.4c3.26.78-2.27-1.37,1.4-.56-7.82-3.55-12.28-3.22-15.68-5.5-4.05-.18,6.9,2.72,4.73,2.29,1.65.87-3.32-.24-5.84-1.12A28.76,28.76,0,0,1,154,10.07a30.6,30.6,0,0,0-6.88-2.57c.66.18.73.11,1.39.29-2.44-.88-5-1-8-2.08-1.87.21-4-1-4.67-.29L142,6.65c-3.55-.6-7-.5-12.68-2a27,27,0,0,1,3.45.17c-1.65-.55-3.29-.48-5-1.05.64-.67,7.6,1.21,11.45,1.56a22.64,22.64,0,0,0-4-.86c-1.34-.18-2.2-.33-1.16-.57a13.09,13.09,0,0,1-5-.52,26.64,26.64,0,0,0-6.42-.77l.38-.42c-.75,0-2.29-.07-3.65-.2.84-.12,1.69-.24,2.53-.3a31.09,31.09,0,0,1-5.52-.64c-.9-.17-1.79-.35-2.69-.49A22.48,22.48,0,0,0,111,.41c3.84.2,4.24.49,4.11.64s-.83.33.75.68c-2.35-.13-3.86-.17-5-.33A13.33,13.33,0,0,1,108.3.82c-1.47-.49-3.11-.89-8.44-.81,1.45-.06,5.4.32,3.16.52-1-.05-2.18-.13-3.26-.22S97.7.2,97.08.1c-7,.47,1.1.43-1.88.88a6.92,6.92,0,0,0-3,.08,32.9,32.9,0,0,1-3.45.9l-.07-.48a28,28,0,0,0-3.8.47,2.58,2.58,0,0,0-1.07.53c-.39.32-.67.61-4.23,1.08l2.87-1.21-3.67.86.65-.68c-2,.53-3.25,1-4.54,1.36S72.3,4.49,70.34,5c1,0-.25,1-3.59,2.15-1.19.25-.91,0-.92,0s-.32,0-2.64,1a7.56,7.56,0,0,1,4.2-1.83c.16-.22,1-.65,1.15-.87a23.21,23.21,0,0,0-4.32,1.36L60.61,8.29c.67-.25,1.46-.54,1.89-.64-2.22,1.07-4.29,2.4-6.39,3.62-1.12.34-.37-.19.39-.7-1.34.65-2.1,1.41-4,2.47.3-.61,0-.9,2.63-2.56l-3,1.88-1.49.93-1.43,1c-.48.1-3.3,1.5-2.61.9A18.47,18.47,0,0,0,44,17c-.92.72-1.88,1.5-2.85,2.32-1.88,1.74-3.93,3.47-5.92,5.11a9.32,9.32,0,0,1-1.28,1.41c-.94.76-1.77,1.59-2.65,2.37s-1.75,1.55-2.58,2.42a38.09,38.09,0,0,0-4.93,6c-.85.7-1.76,1.37-2.57,2.12-2.5,3.74,3.27-3-.87,3.17-.73,1.1-1.18,1.73-1.46,2.1s-.43.43-.53.4-.22-.5-.81.23c-.54,1.22-1.35,2.84-2.19,4.75-.44.94-.94,1.93-1.5,2.93s-1.1,2.07-1.76,3.1A34.24,34.24,0,0,1,14,51.51Zm-12.28,53c-.08-1-.27-3.17.06-3.93C2.23,101.83,1.89,102.74,1.68,104.53Zm29.77,71.94a11.38,11.38,0,0,1-2.62-2.08A24.66,24.66,0,0,1,31.45,176.47Zm221.92,19.71-.1,0C251,196.65,251.82,196.51,253.37,196.18Zm4.62-1.12c.43-.21.38-.27.17-.27a9.74,9.74,0,0,1-2.47.86A5.22,5.22,0,0,0,258,195.06ZM146.89,11.46,146,11.1C148.1,11.5,147.49,11.47,146.89,11.46Z"/><path class="cls-2" d="M23.62,171.38a.64.64,0,0,1-.19-.49C23.05,170.7,23,170.77,23.62,171.38Z"/><path class="cls-2" d="M35.07,24.56l.13-.11a.38.38,0,0,0,.07-.18Z"/><path class="cls-2" d="M184.25,204.33a11.1,11.1,0,0,1-1.89-.45C182.29,204,182.73,204.14,184.25,204.33Z"/><path class="cls-2" d="M280.7,184.5,278.1,186a16.91,16.91,0,0,1,2.48-1.15C280.46,184.82,279.88,185,280.7,184.5Z"/><path class="cls-2" d="M303.74,171.21c.28-.35.69-.66,1-1l-.25-.07C303.08,171.46,302.23,172.52,303.74,171.21Z"/><path class="cls-2" d="M283.93,184.48c.41.21,2-.86,3.78-2.08l-.32.21C287.63,181.81,285.79,183.15,283.93,184.48Z"/><path class="cls-2" d="M288.11,182.11c.54-.39,1.09-.78,1.64-1.12C289.83,180.66,289.06,181.4,288.11,182.11Z"/><path class="cls-2" d="M263.61,192.88c1-.26.41-.71,1-.75C265.49,191.25,258.52,195.05,263.61,192.88Z"/><polygon class="cls-2" points="286.12 184.72 285.19 184.7 284.36 185.67 286.12 184.72"/><path class="cls-2" d="M270.77,192.22c1.08-.41,2.17-.79,3.22-1.27-.09,0,.29-.29.76-.55C272.84,191.34,270.63,192.11,270.77,192.22Z"/><path class="cls-2" d="M274.75,190.4a24.07,24.07,0,0,0,2.47-1.28C276.68,189.39,275.53,190,274.75,190.4Z"/><polygon class="cls-2" points="282.11 187.25 281.15 187.65 278.98 188.77 282.11 187.25"/><path class="cls-2" d="M235,201.73l-3.73.58c-.37.21.67.2,2.06,0C234.21,202.06,235.59,201.82,235,201.73Z"/><path class="cls-2" d="M246.51,201.17a5.51,5.51,0,0,1-1.72-.06v.63C245.37,201.55,246,201.38,246.51,201.17Z"/><path class="cls-2" d="M235.6,203.17c-.35.25-5.43,1.14-.63.55C235.33,203.51,239.08,202.79,235.6,203.17Z"/><polygon class="cls-2" points="178.6 202.02 179.56 202.11 179.53 201.09 178.6 202.02"/><path class="cls-2" d="M128.64,197.26c4.36.75,1.11-.52,5.06.28,1.06-.11-3.23-.66-2.14-.73C128.87,196.73,127.49,196.48,128.64,197.26Z"/><path class="cls-2" d="M131.56,196.81l1.38,0A13.77,13.77,0,0,0,131.56,196.81Z"/><polygon class="cls-2" points="309.85 75.21 312.15 76.88 310.78 75.63 309.85 75.21"/><path class="cls-2" d="M314.87,77.51l.2.91,1.76.45A10.52,10.52,0,0,1,314.87,77.51Z"/><path class="cls-2" d="M.2,112.6l.16.22a10.09,10.09,0,0,0,.23-2.5Q.38,111.46.2,112.6Z"/><polygon class="cls-2" points="5.06 73.12 4.87 73.79 5.77 72.69 5.06 73.12"/><path class="cls-2" d="M18.27,42c-.82,1.13-1.55,2.6-2.33,3.76a23.17,23.17,0,0,1,2-2.84C18.46,42.32,18.69,42.06,18.27,42Z"/></g></g></svg>