<?xml version="1.0" encoding="UTF-8"?>
<svg id="Layer_2" data-name="Layer 2" xmlns="http://www.w3.org/2000/svg" viewBox="0 0 185.14 183.41">
  <defs>
    <style>
      .cls-1 {
        stroke-width: 0px;
      }
    </style>
  </defs>
  <g id="Layer_1-2" data-name="Layer 1">
    <path class="cls-1" d="m85.71.05c.62-.03,12.72.1,13.34.19,66.62,9.63,98.95,3.61,81.35,90.27-4.93,28.32-23.28,67.48-46.96,84.56-.23.16-.46.31-.7.45-25.98,14.49-65.21,8.77-83.72-15.21-.44-.57-.96-1.08-1.56-1.48-11.98-8.12-12.94-25.33-22.26-36.14C15.49,110.12,2.55,96.63.45,80.31-1.88,61.27,5.28,43.01,10.07,24.95,20.09-6.94,59.57,1.41,85.71.05Z"/>
  </g>
</svg>