<svg xmlns="http://www.w3.org/2000/svg" viewBox="0 0 507.62 504"><defs><style>.cls-1{fill:#fff;}</style></defs><g id="Layer_2" data-name="Layer 2"><g id="Layer_1-2" data-name="Layer 1"><path class="cls-1" d="M293.12,504v-5.57q0-83-.1-166c0-4.65,1-6.21,5.94-6.1,16.2.32,32.4.06,48.6.17,3,0,4.65-.76,5.12-4,3.22-21.85,6.56-43.68,9.85-65.52a20.72,20.72,0,0,0,0-2.45h-5.17c-19.81,0-39.63-.07-59.45.07-3.59,0-4.94-.88-4.89-4.72.21-15.56,0-31.13.13-46.69.24-20.19,12.79-34.23,33-36.08,11.54-1.06,23.22-.89,34.83-.9,4,0,5.07-1.3,5-5.15-.18-16.66-.21-33.33,0-50,.05-4.38-.84-6.15-5.74-6.82-19.8-2.7-39.64-4.61-59.6-3.45-43.88,2.55-77.8,28.33-83.84,76-2.67,21.07-1.48,42.62-2.08,63.95-.12,4.36,1.26,10.28-1,12.63s-8.22,1.12-12.56,1.14c-15.1.09-30.2.15-45.29-.05-4,0-5.52.8-5.48,5.16.22,20.59.19,41.19,0,61.79,0,3.86,1,5.15,5,5.11,18.08-.19,36.17,0,54.26-.16,3.81,0,5.13.95,5.12,5q-.18,84.18-.09,168.38c0,1.37-.19,2.75-.29,4.13-90.23-10-198.2-90.44-212.85-221.57C-15.16,132,99.71,6.4,241.85.25c148-6.4,266.74,110,265.76,255.36C506.65,399.55,393.88,491.4,293.12,504Z"/></g></g></svg>