<svg xmlns="http://www.w3.org/2000/svg" viewBox="0 0 503.77 504"><defs><style>.cls-1{fill:#fff;}</style></defs><g id="Layer_2" data-name="Layer 2"><g id="Layer_1-2" data-name="Layer 1"><path class="cls-1" d="M381.44,251.86c.71,71.17-58.21,129.29-128.67,129.69-71.55.41-130.21-58.33-130.34-129.28-.14-71.11,58.28-129.69,129.24-129.86C323,122.24,382.05,180.89,381.44,251.86ZM252.1,168.36c-46.63.63-83.52,36.92-83.59,83.53-.07,46.29,36.41,83.49,83.4,83.58,46.24.1,83.5-36.36,83.58-83.38C335.57,205.55,298.82,169.11,252.1,168.36Z"/><path class="cls-1" d="M416.62,117.67c0,16.54-13.86,30.55-30.46,30.36-17.47-.19-30.59-13.52-30.71-30.71-.11-16.93,14-30.56,30.92-30.49A30.64,30.64,0,0,1,416.62,117.67Z"/><path class="cls-1" d="M503.23,179c-.14-15.43-1.17-30.87-2.21-46.27a151.76,151.76,0,0,0-9-41.85c-13-35.76-36.83-61.39-71.83-76.47-20-8.61-41.15-12.09-62.71-13C339.93.64,322.32.29,304.72.18,273.13,0,241.53-.13,209.94.24,186.4.51,162.85,1.5,139.32,2.4A165.3,165.3,0,0,0,99.56,9.12C66.87,18.59,41.13,37.48,23.24,66.49,9.4,88.93,3.64,113.92,1.88,139.94,1.08,151.73.3,163.55.33,175.36c.15,60-1.5,120,1.43,180a229.39,229.39,0,0,0,4.59,38.14c5.93,27,17.63,50.94,38,70.07,3.82,3.6,5.81,5.64,7.41,6.81h0l5.88,4.46a8.2,8.2,0,0,0,1.31,1c7.5,4.29,14.78,9.07,22.6,12.68,20.56,9.47,42.56,13.13,65,14.08,18.88.8,37.79,1.1,56.7,1.24,27.77.19,55.54.33,83.31-.05,26.16-.35,52.31-1.24,78.45-2.2a160.26,160.26,0,0,0,41.34-7.28c35.51-10.89,62.23-32.53,79.3-65.6,10.27-19.89,14.93-41.39,16.43-63.55,1-14.76,1.67-29.57,1.69-44.37Q503.85,249.9,503.23,179Zm-45.8,153c-.37,17-.72,34-4.28,50.79-5.27,24.87-17.62,44.91-39.56,58.34a92.28,92.28,0,0,1-38.34,12.86c-14.21,1.57-28.54,2.57-42.83,2.87-30.36.63-60.74.76-91.11.87-23.1.09-46.22.18-69.31-.38-17.08-.41-34.22-.7-51.07-4.32-24.74-5.3-44.72-17.61-58.1-39.47A92.32,92.32,0,0,1,49.92,375c-1.54-14.31-2.53-28.72-2.86-43.11-.63-27.19-.75-54.4-.83-81.6-.09-26.09-.2-52.18.35-78.26.36-17.08.69-34.22,4.3-51.07C56.17,96.25,68.44,76.25,90.3,62.86a92.46,92.46,0,0,1,38.88-13c14.12-1.51,28.35-2.51,42.55-2.85,28.4-.68,56.82-.76,85.24-1.08v.48c25.06,0,50.13-.37,75.18.13,17,.33,34,.67,50.79,4.29C411.41,57,433.1,72,445.61,98.9a102.15,102.15,0,0,1,9.14,34.89c1.07,12.87,2,25.79,2.24,38.7.53,27.75.72,55.52.81,83.28C457.88,281.2,458,306.65,457.43,332.07Z"/></g></g></svg>