<svg xmlns="http://www.w3.org/2000/svg" viewBox="0 0 436.55 504"><defs><style>.cls-1{fill:#fff;}</style></defs><g id="Layer_2" data-name="Layer 2"><g id="Layer_1-2" data-name="Layer 1"><path class="cls-1" d="M317.15,0c-1.31,27.51,7.47,51.91,24.13,73.29,20.85,26.76,48.45,42.6,82.13,47.41,4.24.61,8.65.08,13.14.08v86c-43.19-1.5-83.37-12.14-119.37-38.56v4.62c0,56.54.63,113.1-.17,169.63-.91,64.45-30.09,112.69-86.65,143.84-27.5,15.15-57.34,19.94-88.31,16.72-25.49-2.65-49.45-10.58-70.67-25.26C35.65,453.08,12.14,420,3.46,376.92-4,339.79.51,304,18.32,270.75c22.91-42.83,58.41-70.16,106-81.24a151.25,151.25,0,0,1,55.57-2.63v87.66c-4.2-.86-8.35-2-12.58-2.54a72.77,72.77,0,0,0-80.16,53.1c-11,40.29,13.09,82.53,55.22,91.64,37.71,8.16,76-15.34,85.35-52.61a94.6,94.6,0,0,0,2.75-22.87q.27-169.62.14-339.25c0-.67-.08-1.34-.12-2Z"/></g></g></svg>