<svg xmlns="http://www.w3.org/2000/svg" viewBox="0 0 617.33 504"><defs><style>.cls-1{fill:#fff;}</style></defs><g id="Layer_2" data-name="Layer 2"><g id="Layer_1-2" data-name="Layer 1"><path class="cls-1" d="M0,447c69.13,6.4,130.75-10.42,186.55-52.61-58.42-4.71-97.3-34-118.75-88.55,19.13,3.08,36.92,2.85,55.51-1.93C60.37,285,27.31,243.47,23,178.09c9.91,3.67,18.7,7.54,27.85,10.12,9,2.54,18.35,3.77,27.95,4.71C52.56,172.85,35,147.56,27.84,115.58S25.36,53.07,41.66,23.81c68.8,80.71,155.46,125.46,261.41,132.6-.83-9.86-2.1-18.88-2.28-27.91C299.74,76.28,331.65,28,380.58,9.53,431-9.47,476.45.2,516.25,36.26c3.36,3.05,6.21,3.76,10.32,2.84a263.11,263.11,0,0,0,69.14-26.45c1.43-.79,2.9-1.51,5.49-2.85-10.16,30-28.44,52.13-53.49,69.3,24-2.57,46.86-9,69.62-17.69-2.49,3.5-4.92,7-7.5,10.48a261.38,261.38,0,0,1-51.33,51.17,9.58,9.58,0,0,0-3.3,6.8c1.93,85.63-23.18,162.85-73.71,231.51-53.79,73.1-125.77,118.45-215,135.55-72.09,13.8-142.56,7.66-210.53-20.48C38.12,469.07,21.42,459,4.23,450.13A38,38,0,0,1,0,447Z"/></g></g></svg>