<svg xmlns="http://www.w3.org/2000/svg" viewBox="0 0 427.68 212.65"><defs><style>.cls-1{fill:#fff;}</style></defs><g id="Layer_2" data-name="Layer 2"><g id="Layer_1-2" data-name="Layer 1"><path class="cls-1" d="M56.6,116.39q-2.81,4-2.81,6.82c0,1.88,1.68,2.81,5,2.81H106a5,5,0,0,1,3.52,1.41A4.72,4.72,0,0,1,111,131V150.1a4.74,4.74,0,0,1-1.5,3.62,5,5,0,0,1-3.52,1.4H22.08a4.8,4.8,0,0,1-5-5V129a9.76,9.76,0,0,1,.9-4,24.34,24.34,0,0,1,2.31-4L70.45,51.37q2.61-3.81,2.71-6.63c.07-1.87-1.24-2.81-3.91-2.81h-48a4.81,4.81,0,0,1-3.51-1.5,5.08,5.08,0,0,1-1.51-3.72V17.85a5.05,5.05,0,0,1,1.51-3.71,4.78,4.78,0,0,1,3.51-1.51h83.89a4.69,4.69,0,0,1,3.61,1.51,5.22,5.22,0,0,1,1.41,3.71V38.72a9.56,9.56,0,0,1-1,4.12,32.53,32.53,0,0,1-2.2,3.91Z"/><path class="cls-1" d="M119,83.08a71.72,71.72,0,0,1,5.72-28.6,72.92,72.92,0,0,1,38.93-38.93,73.86,73.86,0,0,1,57,0A72.92,72.92,0,0,1,259.6,54.48a71.89,71.89,0,0,1,5.72,28.6,71.16,71.16,0,0,1-5.72,28.5,73.19,73.19,0,0,1-38.93,38.83,73.86,73.86,0,0,1-57,0,73.19,73.19,0,0,1-38.93-38.83A71,71,0,0,1,119,83.08Zm29.3,0a45.28,45.28,0,0,0,3.31,17.46,41.22,41.22,0,0,0,9.23,13.85,44.78,44.78,0,0,0,13.85,9.23A43.51,43.51,0,0,0,192.07,127a44.35,44.35,0,0,0,31.41-12.64,42.7,42.7,0,0,0,9.33-13.85,46.15,46.15,0,0,0,0-34.82,42.86,42.86,0,0,0-23.28-23.38,44.11,44.11,0,0,0-17.46-3.42,43.46,43.46,0,0,0-31.21,12.75,42.07,42.07,0,0,0-9.23,14A45.5,45.5,0,0,0,148.32,83.08Z"/><path class="cls-1" d="M36.42,179.61a1,1,0,0,1,.82-.73c.39,0,.74-.07,1-.07h4.28a.68.68,0,0,1,.75.5,1.44,1.44,0,0,1,0,1l-11,31.21a1,1,0,0,1-.45.49,1.43,1.43,0,0,1-.73.21H28.47a1.45,1.45,0,0,1-.75-.23,1,1,0,0,1-.47-.52L16.3,180.27a1.26,1.26,0,0,1,0-1,.71.71,0,0,1,.68-.47h4.28c.31,0,.67,0,1.06.07a1,1,0,0,1,.82.73l6,16.64a.78.78,0,0,0,.63.52.57.57,0,0,0,.69-.43Z"/><path class="cls-1" d="M78.25,212.18a8.29,8.29,0,0,1-1.06-.07,1,1,0,0,1-.82-.73l-1.7-4.79a2.11,2.11,0,0,0-.49-.82,1.09,1.09,0,0,0-.82-.31H65.93a1,1,0,0,0-.73.33,1.92,1.92,0,0,0-.4.61l-1.69,5a1,1,0,0,1-.82.73,8.41,8.41,0,0,1-1.06.07H57a.7.7,0,0,1-.68-.47,1.23,1.23,0,0,1,0-1l11-31.17a1,1,0,0,1,.47-.51,1.38,1.38,0,0,1,.75-.24H71.1a1.43,1.43,0,0,1,.73.21,1,1,0,0,1,.45.5l11,31.21a1.44,1.44,0,0,1,0,1,.68.68,0,0,1-.75.49Zm-10.2-14.47a.8.8,0,0,0,0,.61c.1.19.41.28.94.28h1.74c.44,0,.68-.09.73-.26a.91.91,0,0,0,0-.54l-1.08-3.15a.57.57,0,0,0-.69-.42.75.75,0,0,0-.63.52Z"/><path class="cls-1" d="M106,178.81a1.15,1.15,0,0,1,.85.33,1.21,1.21,0,0,1,.33.89v24.12a1.31,1.31,0,0,0,.26,1,.93.93,0,0,0,.68.26H120.4a1.18,1.18,0,0,1,.83.33,1.12,1.12,0,0,1,.35.84V211a1.12,1.12,0,0,1-.35.84,1.18,1.18,0,0,1-.83.33H101.51a1,1,0,0,1-.89-.35,1.28,1.28,0,0,1-.29-.82V180a1.21,1.21,0,0,1,.33-.89,1.15,1.15,0,0,1,.85-.33Z"/><path class="cls-1" d="M160.49,204.66a1.47,1.47,0,0,1,.1-.89,1,1,0,0,1,.7-.61l4.33-.61a1.17,1.17,0,0,1,.94.11,1.06,1.06,0,0,1,.56.64,3.58,3.58,0,0,0,1.48,1.83,4.23,4.23,0,0,0,2.75.71,9,9,0,0,0,1.74-.26,2.64,2.64,0,0,0,1.48-1.06,6.69,6.69,0,0,0,1-2.51,21.87,21.87,0,0,0,.38-4.59V180a1.15,1.15,0,0,1,.35-.89,1.21,1.21,0,0,1,.87-.33h4.42a1.24,1.24,0,0,1,.87.33,1.18,1.18,0,0,1,.35.89v19.74a16.27,16.27,0,0,1-1,5.93,11.18,11.18,0,0,1-2.57,4,9.57,9.57,0,0,1-3.66,2.26,13.2,13.2,0,0,1-4.28.7,14.16,14.16,0,0,1-3.5-.44,10.23,10.23,0,0,1-3.17-1.44,10.42,10.42,0,0,1-2.56-2.49A10.11,10.11,0,0,1,160.49,204.66Z"/><path class="cls-1" d="M221.17,212.18a8.41,8.41,0,0,1-1.06-.07,1,1,0,0,1-.82-.73l-1.69-4.79a2.23,2.23,0,0,0-.49-.82,1.11,1.11,0,0,0-.83-.31h-7.42a1,1,0,0,0-.73.33,1.63,1.63,0,0,0-.4.61l-1.69,5a1,1,0,0,1-.83.73,8.26,8.26,0,0,1-1.05.07h-4.28a.7.7,0,0,1-.68-.47,1.28,1.28,0,0,1,0-1l11-31.17a1,1,0,0,1,.47-.51,1.38,1.38,0,0,1,.75-.24H214a1.37,1.37,0,0,1,.72.21.93.93,0,0,1,.45.5l11,31.21a1.44,1.44,0,0,1,0,1,.68.68,0,0,1-.75.49ZM211,197.71a.8.8,0,0,0,.05.61c.09.19.41.28.94.28h1.74c.44,0,.68-.09.73-.26a1,1,0,0,0,0-.54l-1.08-3.15a.56.56,0,0,0-.68-.42.73.73,0,0,0-.63.52Z"/><path class="cls-1" d="M248.9,178.81a1.15,1.15,0,0,1,.85.33,1.25,1.25,0,0,1,.33.89v24.12a1.37,1.37,0,0,0,.25,1,1,1,0,0,0,.69.26h12.31a1.16,1.16,0,0,1,.82.33,1.08,1.08,0,0,1,.35.84V211a1.08,1.08,0,0,1-.35.84,1.16,1.16,0,0,1-.82.33H244.44a1.07,1.07,0,0,1-.9-.35,1.27,1.27,0,0,1-.28-.82V180a1.21,1.21,0,0,1,.33-.89,1.15,1.15,0,0,1,.85-.33Z"/><path class="cls-1" d="M282.65,212.18a1.13,1.13,0,0,1-1.18-1.17V180a1.24,1.24,0,0,1,.33-.87,1.12,1.12,0,0,1,.85-.35h6.86a25.45,25.45,0,0,1,6.16.64,11.19,11.19,0,0,1,4.13,1.85,7.29,7.29,0,0,1,2.33,3,10.41,10.41,0,0,1,.73,4,9.11,9.11,0,0,1-.59,3.36,11.94,11.94,0,0,1-1.53,2.75.76.76,0,0,0-.19.68,1.3,1.3,0,0,0,.47.59,8.64,8.64,0,0,1,3.25,7.1,10.36,10.36,0,0,1-.73,4,7.16,7.16,0,0,1-2.33,3,11.2,11.2,0,0,1-4.13,1.86,26,26,0,0,1-6.16.63Zm6.62-26.51a.86.86,0,0,0-.73.36,1.35,1.35,0,0,0-.25.82v4.23a.93.93,0,0,0,.28.7,1,1,0,0,0,.7.29,11.31,11.31,0,0,0,5.24-.87,2.56,2.56,0,0,0,0-4.68,11,11,0,0,0-5-.85Zm0,13.26a.92.92,0,0,0-.7.3,1,1,0,0,0-.28.73v4.19a1.41,1.41,0,0,0,.25.86.82.82,0,0,0,.69.36h1.69a10.84,10.84,0,0,0,5-.85,2.6,2.6,0,0,0,1.5-2.35,2.67,2.67,0,0,0-1.5-2.35,10.5,10.5,0,0,0-5-.89Z"/><path class="cls-1" d="M342.24,178.81a1.14,1.14,0,0,1,.82.35,1.19,1.19,0,0,1,.36.87v4.42a1.15,1.15,0,0,1-.36.87,1.1,1.1,0,0,1-.82.35H329.93a.79.79,0,0,0-.68.38,1.34,1.34,0,0,0-.26.8v4.65a1.36,1.36,0,0,0,.26.87.79.79,0,0,0,.68.35h12.31a1.16,1.16,0,0,1,.82.33,1.11,1.11,0,0,1,.36.85v4.46a1.1,1.1,0,0,1-.36.85,1.16,1.16,0,0,1-.82.33H329.93a.88.88,0,0,0-.66.3,1,1,0,0,0-.28.73v3.76a1,1,0,0,0,.3.76,1,1,0,0,0,.68.28h12.27a1.16,1.16,0,0,1,.82.33,1.09,1.09,0,0,1,.36.84V211a1.09,1.09,0,0,1-.36.84,1.16,1.16,0,0,1-.82.33H323.35a1.09,1.09,0,0,1-.85-.35,1.17,1.17,0,0,1-.33-.82V180a1.21,1.21,0,0,1,.33-.89,1.15,1.15,0,0,1,.85-.33Z"/><path class="cls-1" d="M370,204c-.63.22-.94.58-.94,1.09V211a1.17,1.17,0,0,1-.33.82,1.09,1.09,0,0,1-.85.35h-4.46a1.09,1.09,0,0,1-.85-.35,1.17,1.17,0,0,1-.33-.82V180a1.21,1.21,0,0,1,.33-.89,1.15,1.15,0,0,1,.85-.33h7.8a29.92,29.92,0,0,1,6.3.61,11.92,11.92,0,0,1,4.65,2,9,9,0,0,1,2.87,3.72,14.39,14.39,0,0,1,1,5.68,10,10,0,0,1-1.36,5,15.35,15.35,0,0,1-3.48,4.21,2.94,2.94,0,0,0-.94,1.1,2.11,2.11,0,0,0,.19,1.43l3.95,8.14a1.69,1.69,0,0,1,.14,1c-.06.29-.36.44-.89.44h-5a1.45,1.45,0,0,1-.9-.23,2,2,0,0,1-.42-.47l-4.14-7.43q-.09-.23-.51-.33a2.89,2.89,0,0,0-.94,0l-.83.09A5.47,5.47,0,0,0,370,204Zm.09-18.33a1,1,0,0,0-.73.31,1,1,0,0,0-.3.73V196a1.29,1.29,0,0,0,.26.85.86.86,0,0,0,.73.33h1.17a10.85,10.85,0,0,0,3.2-.45A7.86,7.86,0,0,0,377,195.5a6.21,6.21,0,0,0,1.65-1.84,4.46,4.46,0,0,0,.58-2.25,6.21,6.21,0,0,0-.58-2.87,4.38,4.38,0,0,0-1.65-1.76,7.09,7.09,0,0,0-2.51-.87,19.84,19.84,0,0,0-3.2-.24Z"/><path class="cls-1" d="M401.13,180a1.24,1.24,0,0,1,.33-.87,1.12,1.12,0,0,1,.85-.35H423.6a1.14,1.14,0,0,1,.82.35,1.18,1.18,0,0,1,.35.87v4.42a1.15,1.15,0,0,1-.35.87,1.1,1.1,0,0,1-.82.35h-6.25a.91.91,0,0,0-.71.33,1.07,1.07,0,0,0-.28.71V211a1.17,1.17,0,0,1-.33.82,1.08,1.08,0,0,1-.84.35h-4.47a1.09,1.09,0,0,1-.85-.35,1.22,1.22,0,0,1-.33-.82V186.85a1.3,1.3,0,0,0-.28-.8.8.8,0,0,0-.65-.38h-6.3a1.09,1.09,0,0,1-.85-.35,1.21,1.21,0,0,1-.33-.87Z"/><polygon class="cls-1" points="18.9 92.92 15.37 76.71 0 74.86 15.37 70.98 18.07 55.96 22.19 71.19 36.96 74.03 22.95 76.93 18.9 92.92"/><polygon class="cls-1" points="269.02 154.01 266.62 142.93 256.11 141.66 266.62 139.01 268.46 128.75 271.27 139.16 281.37 141.09 271.79 143.08 269.02 154.01"/><polygon class="cls-1" points="129.07 25.26 126.66 14.18 116.15 12.92 126.66 10.26 128.5 0 131.32 10.41 141.42 12.35 131.84 14.33 129.07 25.26"/><path class="cls-1" d="M422,55.48A73,73,0,0,0,383,16.55a73.84,73.84,0,0,0-57,0,73,73,0,0,0-38.94,38.93,71.89,71.89,0,0,0-5.72,28.6,71.16,71.16,0,0,0,5.72,28.5A73.25,73.25,0,0,0,326,151.41a71.33,71.33,0,0,0,28.39,5.72c.56,0,1.11,0,1.66,0,.06-1.77.24-3.54.3-5.18-1.21-1.3-2.54-2.5-3.81-3.73-2.12-2.06-4.56-4.08-5.14-7.13-.62-3.23.14-7,.47-10.26.46-4.51,1.13-9,2-13.43a8.07,8.07,0,0,1-2.47-2c-1.34-2.17-1.46-5.66-1.32-8.12a21.68,21.68,0,0,1,.27-2.29l-.06.07a1.35,1.35,0,0,1-2.23-.59c-1-3.47,1.33-6,1.48-9.36.11-2.34-1.69-4-3.12-5.61l-2.52-2.88a27.89,27.89,0,0,1-3.06-3.09c-2.52-3-6.14-10.21-1.89-13.42,2-1.47,4.12-.27,5.78,1,.9.71,1.79,1.45,2.69,2.18a28,28,0,0,1-.3-9c.33-2.3,1-5.37,3-6.83.19-.68.35-1.38.56-2.06.46-1.49,1.08-3.61,3-3.61s3.65,2.73,4.82,4c1.81,1.92,3.59,3.88,5.32,5.88,2.19,2.53,4.28,5.15,6.32,7.8a17.64,17.64,0,0,0,6.76,2.72,18.75,18.75,0,0,1,11.33,7c3.17,3.91,5.69,8.38,8.38,12.63a74.75,74.75,0,0,0,6.56,9.58c2.31,1.65,4.68,3.23,7.14,4.66,1,.57,2,1.12,3,1.65a10.91,10.91,0,0,1,2.67,1.59c1.39,1.41.7,3.4-.64,4.53a8.13,8.13,0,0,1-3.14,1.56A14.5,14.5,0,0,1,404.7,117c.36.94.71,1.91,1.06,2.92a26,26,0,0,0,6.28,9.4A75.11,75.11,0,0,0,422,112.58a71.16,71.16,0,0,0,5.72-28.5A71.89,71.89,0,0,0,422,55.48ZM311.23,76.93l-4.05,16-3.53-16.21-15.37-1.85L303.65,71l2.7-15,4.12,15.23L325.24,74ZM326.3,45,323.53,56l-2.41-11.08-10.51-1.27L321.12,41,323,30.7l2.82,10.41,10.1,1.94Z"/></g></g></svg>