<svg xmlns="http://www.w3.org/2000/svg" viewBox="0 0 168.79 121.09"><defs><style>.cls-1,.cls-2,.cls-3{fill:none;stroke:#b07ff7;}.cls-1{stroke-linecap:round;stroke-linejoin:round;stroke-width:9.09px;}.cls-2,.cls-3{stroke-miterlimit:10;stroke-width:6.61px;}.cls-3{stroke-dasharray:10.88 7.26;}.cls-4{fill:#b07ff7;}</style></defs><g id="Layer_2" data-name="Layer 2"><g id="Layer_1-2" data-name="Layer 1"><polyline class="cls-1" points="149.19 41.07 149.19 35.36 127.81 35.36"/><path class="cls-1" d="M145.37,109.43h3.82V86.55a14.1,14.1,0,0,1-9.46-3.62"/><path class="cls-1" d="M16.94,79.24a14.15,14.15,0,0,1-12.4,7.31v22.88H117.32"/><path class="cls-1" d="M28.36,35.36H4.54V58.24a14.29,14.29,0,0,1,4.87.86"/><path class="cls-1" d="M140.18,77a14.14,14.14,0,0,1,17.58-9.56l6.48-21.95L25.52,4.54,19,26.49a14.15,14.15,0,0,1-8,27.15L4.54,75.58l138.73,41,6.48-21.94A14.17,14.17,0,0,1,140.18,77Z"/><line class="cls-2" x1="127.81" y1="34.75" x2="126.06" y2="40.7"/><line class="cls-3" x1="124" y1="47.66" x2="109.62" y2="96.37"/><line class="cls-2" x1="108.59" y1="99.85" x2="106.83" y2="105.79"/><path class="cls-4" d="M80,37.06,81.9,48.18a2.13,2.13,0,0,0,1.2,1.57l10.26,4.72a2.12,2.12,0,0,1,.1,3.8l-10,5.27a2.14,2.14,0,0,0-1.11,1.63L81,76.38a2.12,2.12,0,0,1-3.59,1.27l-8.1-7.86a2.09,2.09,0,0,0-1.89-.56l-11.07,2.2a2.11,2.11,0,0,1-2.32-3l5-10.13a2.13,2.13,0,0,0,0-2l-5.52-9.85a2.12,2.12,0,0,1,2.15-3.13l11.18,1.6a2.11,2.11,0,0,0,1.86-.66L76.33,36A2.11,2.11,0,0,1,80,37.06Z"/></g></g></svg>