<svg xmlns="http://www.w3.org/2000/svg" viewBox="0 0 146.3 146.3"><defs><style>.cls-1{fill:#b07ff7;}</style></defs><g id="Layer_2" data-name="Layer 2"><g id="Layer_1-2" data-name="Layer 1"><path class="cls-1" d="M140.58,44.65A72.92,72.92,0,0,0,101.65,5.72,71.89,71.89,0,0,0,73.05,0a71.42,71.42,0,0,0-28.4,5.72A72.92,72.92,0,0,0,5.72,44.65,71.89,71.89,0,0,0,0,73.25a71.16,71.16,0,0,0,5.72,28.5,73.19,73.19,0,0,0,38.93,38.83,71.24,71.24,0,0,0,28.4,5.72c.56,0,1.11,0,1.66,0,.06-1.77.24-3.54.29-5.18-1.2-1.3-2.53-2.49-3.8-3.73-2.12-2.06-4.56-4.08-5.14-7.13-.62-3.22.13-7,.46-10.26.46-4.5,1.14-9,2-13.43a7.92,7.92,0,0,1-2.47-2c-1.35-2.18-1.46-5.67-1.32-8.13A19.59,19.59,0,0,1,65,94.09l-.06.07a1.35,1.35,0,0,1-2.23-.59c-1-3.46,1.32-6,1.48-9.35.11-2.34-1.69-4-3.12-5.62l-2.52-2.88a27.15,27.15,0,0,1-3.07-3.09c-2.51-3-6.13-10.21-1.88-13.41,2-1.48,4.12-.28,5.78,1,.9.72,1.79,1.46,2.68,2.18a28,28,0,0,1-.29-9c.33-2.3,1-5.37,3-6.82.18-.69.35-1.38.56-2.07.46-1.48,1.07-3.61,3-3.6s3.66,2.72,4.82,3.95c1.82,1.92,3.6,3.88,5.32,5.88,2.19,2.54,4.29,5.16,6.33,7.81a17.8,17.8,0,0,0,6.76,2.72,18.69,18.69,0,0,1,11.32,6.95c3.18,3.92,5.69,8.38,8.39,12.63a75.72,75.72,0,0,0,6.55,9.58c2.32,1.65,4.69,3.23,7.14,4.66,1,.57,2,1.12,3,1.66a10.75,10.75,0,0,1,2.68,1.58c1.39,1.41.7,3.4-.65,4.54a8,8,0,0,1-3.13,1.55,13.93,13.93,0,0,1-3.45,1.62c.36.95.7,1.92,1.06,2.93a26,26,0,0,0,6.27,9.4,75,75,0,0,0,9.92-16.7,71,71,0,0,0,5.72-28.5A71.72,71.72,0,0,0,140.58,44.65ZM29.86,66.1l-4.05,16L22.28,65.89,6.91,64l15.37-3.88,2.69-15L29.1,60.37,43.87,63.2ZM44.92,34.2,42.16,45.14,39.75,34.06,29.24,32.79l10.51-2.65,1.84-10.27,2.82,10.41L54.5,32.22Z"/></g></g></svg>